<?xml version="1.0" encoding="UTF-8" standalone="no"?>
<!-- Created with Inkscape (http://www.inkscape.org/) -->

<svg
   width="100"
   height="100"
   version="1.1"
   viewBox="0 0 100 100"
   xml:space="preserve"
   id="svg22192"
   sodipodi:docname="ghetto_url_04.svg"
   inkscape:version="1.2.2 (732a01da63, 2022-12-09, custom)"
   xmlns:inkscape="http://www.inkscape.org/namespaces/inkscape"
   xmlns:sodipodi="http://sodipodi.sourceforge.net/DTD/sodipodi-0.dtd"
   xmlns="http://www.w3.org/2000/svg"
   xmlns:svg="http://www.w3.org/2000/svg"><sodipodi:namedview
     id="namedview22194"
     pagecolor="#ffffff"
     bordercolor="#111111"
     borderopacity="1"
     inkscape:showpageshadow="0"
     inkscape:pageopacity="0"
     inkscape:pagecheckerboard="1"
     inkscape:deskcolor="#d1d1d1"
     showgrid="false"
     inkscape:zoom="2.36"
     inkscape:cx="84.745763"
     inkscape:cy="81.355932"
     inkscape:current-layer="svg22192"
     inkscape:window-width="1294"
     inkscape:window-height="639"
     inkscape:window-x="72"
     inkscape:window-y="27"
     inkscape:window-maximized="1" /><animateTransform
     attributeName="transform"
     attributeType="XML"
     dur="20s"
     from="0,0,0"
     repeatCount="indefinite"
     to="359,0,0"
     type="rotate" /><defs
     id="defs22188"><linearGradient
       id="linearGradient19700"
       x1="18.733"
       x2="77.041634"
       y1="84.084"
       y2="12.977389"
       gradientTransform="translate(-.051407 -.22692)"
       gradientUnits="userSpaceOnUse"><stop
         style="stop-color:#40e0d0"
         offset="0"
         id="stop22183" /><stop
         style="stop-color:#ffffe0"
         offset="1"
         id="stop22185" /></linearGradient></defs><circle
     id="path19189"
     cx="50"
     cy="50"
     r="46"
     style="fill-rule:evenodd;fill:url(#linearGradient19700);paint-order:stroke fill markers;stroke-dashoffset:20.001;stroke-linecap:round;stroke-linejoin:round;stroke-width:0.5" /><path
     id="path9133"
     style="font-weight:normal;font-size:26.2867px;font-family:Impact;-inkscape-font-specification:Impact;fill:#ff0000;fill-rule:evenodd;stroke-width:3.1519;stroke-linecap:round;stroke-linejoin:round;stroke-dashoffset:20.0013;paint-order:stroke fill markers"
     d="m 15.897935,39.966797 c -1.916217,0 -3.480474,0.349087 -4.693399,1.046875 -1.202732,0.689859 -1.9312681,1.450615 -2.1860854,2.283203 -0.2548162,0.832589 -0.3837503,2.170142 -0.3837503,4.009766 v 5.720703 c 0,1.324211 0.063095,2.318303 0.1854067,2.984375 0.1223124,0.65814 0.4270125,1.289942 0.9162595,1.892578 0.4892475,0.602635 1.2030875,1.109155 2.1408115,1.521484 0.947914,0.4044 1.961556,0.607422 3.041977,0.607422 0.907146,0 1.691724,-0.148018 2.354245,-0.441406 0.672716,-0.301318 1.22823,-0.749045 1.666513,-1.34375 l 0.597186,1.380859 H 23.58804 V 49.292969 h -7.537035 v 2.925781 h 1.300008 v 2.283203 c 0,0.896024 -0.08759,1.499347 -0.260864,1.808594 -0.163082,0.309248 -0.479735,0.462891 -0.948597,0.462891 -0.428091,-10e-7 -0.713197,-0.134697 -0.855893,-0.404297 -0.142697,-0.27753 -0.213434,-0.848585 -0.213434,-1.712891 v -9.242188 c 0,-0.983247 0.07074,-1.592196 0.213434,-1.830078 0.142696,-0.237882 0.413106,-0.357422 0.810619,-0.357422 0.45867,10e-7 0.748674,0.138487 0.870985,0.416016 0.122312,0.27753 0.185408,0.968124 0.185408,2.070313 v 1.748047 h 6.435369 v -0.832032 c 0,-1.577952 -0.18772,-2.78081 -0.564847,-3.605468 -0.377128,-0.832589 -1.188355,-1.549709 -2.431858,-2.152344 -1.243502,-0.602636 -2.80776,-0.904297 -4.6934,-0.904297 z m 9.999075,0.404297 v 19.257812 h 6.176662 V 48.365234 c 0,-0.800869 0.06584,-1.335868 0.198342,-1.605468 0.132504,-0.269601 0.388218,-0.40625 0.765345,-0.40625 0.407707,0 0.666162,0.130907 0.778282,0.392578 0.122311,0.26167 0.185407,0.853626 0.185407,1.773437 v 11.109375 h 6.17666 V 48.746094 c 0,-1.482801 -0.08759,-2.503535 -0.260864,-3.058594 -0.163081,-0.562988 -0.626108,-1.05814 -1.390557,-1.486328 -0.754255,-0.428188 -1.672666,-0.642578 -2.753087,-0.642578 -0.703293,0 -1.365991,0.0968 -1.987742,0.287109 -0.611559,0.190307 -1.181769,0.474858 -1.711786,0.855469 v -4.330078 z m 32.733067,1.36914 v 2.484375 h -1.330192 v 2.498047 h 1.330192 v 8.017578 c 0,1.570024 0.05604,2.567905 0.168161,2.996094 0.112119,0.420258 0.397223,0.797824 0.855893,1.13086 0.458669,0.325106 0.989691,0.535706 1.591056,0.630859 0.601366,0.08722 1.605211,0.130859 3.011796,0.130859 h 2.492223 v -2.546875 c -1.009072,0 -1.584181,-0.05879 -1.726878,-0.177734 -0.132504,-0.118941 -0.200499,-0.697575 -0.200499,-1.736328 v -8.445313 h 1.666513 v -2.498047 h -1.666513 v -2.484375 z m 9.539869,0 v 2.484375 h -1.328037 v 2.498047 h 1.328037 v 8.017578 c 0,1.570024 0.0582,2.567905 0.170316,2.996094 0.112119,0.420258 0.397224,0.797824 0.855893,1.13086 0.458669,0.325106 0.987535,0.535706 1.5889,0.630859 0.601367,0.08722 1.605211,0.130859 3.011796,0.130859 h 2.492223 v -2.546875 c -1.009072,0 -1.584181,-0.05879 -1.726878,-0.177734 -0.132505,-0.118941 -0.198342,-0.697575 -0.198342,-1.736328 v -8.445313 h 1.666512 v -2.498047 h -1.666512 v -2.484375 z m -19.217715,1.81836 c -1.416778,0 -2.669281,0.21439 -3.759894,0.642578 -1.090612,0.420259 -1.875189,1.031161 -2.354245,1.832031 -0.479054,0.792941 -0.720071,1.880048 -0.720071,3.259766 v 4.601562 c 0,1.173554 0.107183,2.07096 0.32123,2.689453 0.214045,0.610566 0.596537,1.172089 1.146939,1.6875 0.560596,0.507483 1.340274,0.909738 2.339155,1.203125 0.998878,0.293389 2.151252,0.439453 3.455911,0.439453 1.345429,10e-7 2.461356,-0.146064 3.348116,-0.439453 0.896954,-0.301317 1.635287,-0.750997 2.216268,-1.345703 0.580981,-0.594706 0.948776,-1.15244 1.101667,-1.675781 0.163082,-0.523341 0.243617,-1.272729 0.243617,-2.248047 v -1.166016 h -5.855432 v 2.082032 c 0,0.785012 -0.08054,1.31622 -0.243617,1.59375 -0.15289,0.269599 -0.464644,0.404297 -0.933505,0.404297 -0.377128,0 -0.63284,-0.104383 -0.765345,-0.310547 -0.132505,-0.206165 -0.198344,-0.66526 -0.198344,-1.378906 v -3.414063 h 7.996243 v -2.09375 c 0,-1.530376 -0.229064,-2.714169 -0.687733,-3.554687 -0.448477,-0.848447 -1.237953,-1.527675 -2.369337,-2.035157 -1.12119,-0.515412 -2.548873,-0.773437 -4.281623,-0.773437 z m 35.134742,0 c -1.651208,0 -3.005997,0.250447 -4.066031,0.75 -1.060036,0.499553 -1.795627,1.161669 -2.203333,1.986328 -0.407705,0.824658 -0.61012,1.970559 -0.61012,3.4375 v 4.044922 c -10e-7,1.34007 0.112081,2.345531 0.336321,3.019531 0.224237,0.666071 0.594775,1.237126 1.114602,1.712891 0.530016,0.467835 1.270506,0.820711 2.218422,1.058593 0.947917,0.229953 2.103033,0.345704 3.468847,0.345703 1.223119,10e-7 2.304755,-0.134697 3.242478,-0.404296 0.947917,-0.27753 1.722697,-0.70252 2.324063,-1.273438 0.601366,-0.578847 0.993655,-1.197327 1.177122,-1.855469 0.183468,-0.66607 0.275956,-1.707588 0.275956,-3.126953 v -3.867187 c 0,-1.118047 -0.102286,-1.948965 -0.306138,-2.496094 -0.193661,-0.547129 -0.561456,-1.080291 -1.101666,-1.595703 -0.54021,-0.515412 -1.310093,-0.930871 -2.308972,-1.248047 -0.988687,-0.325106 -2.175351,-0.488281 -3.561551,-0.488281 z m -34.843695,2.794922 c 0.346549,0 0.575614,0.119539 0.687733,0.357422 0.112119,0.237882 0.168161,0.765302 0.168161,1.582031 v 1.154297 h -1.804491 v -1.154297 c 0,-0.888093 0.05114,-1.430671 0.153069,-1.628907 0.101927,-0.206165 0.367437,-0.310546 0.795528,-0.310546 z m 35.05713,0 c 0.366935,0 0.607952,0.108171 0.720071,0.322265 0.112119,0.206165 0.16816,0.712684 0.16816,1.521485 v 7.279296 c 0,0.68193 -0.06309,1.125867 -0.185406,1.332032 -0.11212,0.206164 -0.35098,0.310547 -0.717916,0.310547 -0.356742,0 -0.595605,-0.111961 -0.717916,-0.333985 -0.122313,-0.229952 -0.183251,-0.717526 -0.183251,-1.46289 v -7.125 c 0,-0.808801 0.06094,-1.31532 0.183251,-1.521485 0.122311,-0.214094 0.366071,-0.322265 0.733007,-0.322265 z" /></svg>