<?xml version="1.0" encoding="UTF-8"?>
<!-- Created with Inkscape (http://www.inkscape.org/) -->
<svg width="100px" height="100px" version="1.1" viewBox="0 0 210 297" xmlns="http://www.w3.org/2000/svg">
				<g transform="matrix(6.2976 0 0 6.2761 -531.06 -165.53)" style="stroke-width:.15906">
								<g style="stroke-width:.15906">
												<g style="stroke-width:.15906">
																<g style="stroke-width:.15906">
																				<g style="stroke-width:.15906">
																								<g transform="translate(-80.089,-66.741)" style="stroke-width:.15906">
																												<path id="path104153" d="m180.68 93.673c-0.23585 4e-3 -0.47191 0.01289-0.70753 0.02673-5.8546 0.30651-11.448 3.8268-14.151 9.0465-2.5749 4.8169-2.5653 10.916 0.0966 15.697 1.7465 3.2151 4.5656 5.8367 7.8999 7.3442 0.5716 1.873 1.2098 3.7243 1.827 5.5826-1.009 0.63902-1.3234 1.9369-1.156 3.0585 0.0586 1.4166-0.19278 2.8907 0.22406 4.2642 0.52948 1.1724 1.9364 1.6477 3.1421 1.4586 2.7467-0.0421 5.5067 0.0947 8.2451-0.0933 1.3718-0.33014 2.0836-1.8856 1.85-3.2011-0.0576-1.4265 0.16682-2.8941-0.17965-4.2902-0.21895-0.56259-0.65899-1.034-1.1943-1.3101 0.61916-1.8576 1.2444-3.7132 1.8352-5.5797 5.3889-2.4841 9.2379-8.0036 9.6317-13.933 0.49228-5.8694-2.4506-11.848-7.3502-15.1-2.9328-1.9813-6.4754-3.03-10.013-2.9705z" style="fill-rule:evenodd;fill:#f9f9f9;stroke-width:.084169;stroke:#00aad4"/>
																												<path id="path4502" d="m175.09 124.52c-0.0103 3.9e-4 -0.0201 2e-3 -0.0296 6e-3 -0.15148 0.057-0.13944 0.50646 0.0267 1.008l2.005 6.0517c0.0983 0.29666 0.22777 0.54239 0.34863 0.6824h-0.37412c-0.69799 0-1.2601 0.56163-1.2601 1.2596v4.1306c0 0.69795 0.56206 1.26 1.2601 1.26h8.4217c0.69799 0 1.2601-0.56204 1.2601-1.26v-4.1306c0-0.69796-0.56206-1.2596-1.2601-1.2596h-0.62777c0.12086-0.14001 0.25032-0.38571 0.34862-0.6824l2.005-6.0517c0.16617-0.50153 0.1782-0.95103 0.0267-1.008-0.15148-0.057-0.40733 0.30091-0.5735 0.80243l-2.005 6.0517c-0.12255 0.36985-0.16117 0.71122-0.11224 0.88795h-2.5069c0.12086-0.14001 0.25032-0.38572 0.34863-0.68241l2.005-6.0517c0.16617-0.50154 0.17821-0.95103 0.0267-1.008-0.15148-0.057-0.40733 0.30091-0.5735 0.80243l-2.005 6.0517c-0.12254 0.36989-0.16117 0.71123-0.11222 0.88795h-1.1647c0.0489-0.17672 0.0107-0.51807-0.11182-0.88795l-2.0054-6.0517c-0.16618-0.50155-0.42161-0.85939-0.57309-0.80243-0.15148 0.057-0.13987 0.50646 0.0263 1.008l2.005 6.0517c0.0983 0.29668 0.22776 0.5424 0.34862 0.68241h-2.5069c0.0489-0.17673 0.0103-0.51807-0.11223-0.88795l-2.005-6.0517c-0.15578-0.47019-0.39038-0.81396-0.5439-0.80823z" style="fill-rule:evenodd;fill:#683f1a;stroke-width:.15906"/>
																												<g transform="matrix(.79555 0 0 .79551 46.793 -17.703)" style="fill:#906741;stroke-width:.19994">
																																<rect x="163" y="189.95" width="12.171" height="1.1279" rx="1.4015" ry="0" style="fill-rule:evenodd;fill:#906741;stroke-width:.19994"/>
																																<rect x="163" y="192.21" width="12.171" height="1.1279" rx="1.4015" ry="0" style="fill-rule:evenodd;fill:#906741;stroke-width:.19994"/>
																																<rect x="163" y="194.48" width="12.171" height="1.1279" rx="1.4015" ry="0" style="fill-rule:evenodd;fill:#906741;stroke-width:.19994"/>
																												</g>
																												<path id="path4504" d="m181.07 94.946a15.847 15.592 0 0 0-15.847 15.592 15.847 15.592 0 0 0 15.847 15.592z" style="fill-rule:evenodd;fill:#ea4d55;stroke-dashoffset:20.001;stroke-linecap:round;stroke-linejoin:round;stroke-width:.042085"/>
																												<path id="path4506" d="m181.07 94.946v31.185a15.847 15.592 0 0 0 15.847-15.592 15.847 15.592 0 0 0-15.847-15.592z" style="fill-rule:evenodd;fill:#45abeb;stroke-dashoffset:20.001;stroke-linecap:round;stroke-linejoin:round;stroke-width:.042085"/>
																												<path id="path4508" d="m181.07 94.946a8.9149 15.592 0 0 0-8.9149 15.592 8.9149 15.592 0 0 0 8.9149 15.592z" style="fill-rule:evenodd;fill:#fcf049;stroke-dashoffset:20.001;stroke-linecap:round;stroke-linejoin:round;stroke-width:.042085"/>
																												<path id="path4510" d="m181.07 94.946a8.9149 15.592 0 0 1 8.9149 15.592 8.9149 15.592 0 0 1-8.9149 15.592z" style="fill-rule:evenodd;fill:#b5f182;stroke-dashoffset:20.001;stroke-linecap:round;stroke-linejoin:round;stroke-width:.042085"/>
																								</g>
																				</g>
																</g>
												</g>
								</g>
				</g>
</svg>
