<?xml version="1.0" encoding="UTF-8"?>
<!-- Created with Inkscape (http://www.inkscape.org/) -->
<svg width="100" height="100" version="1.1" viewBox="0 0 210 297" xml:space="preserve" xmlns="http://www.w3.org/2000/svg"><defs><filter id="filter6877" x="-.22235" y="-.3704" width="1.4447" height="1.7408" style="color-interpolation-filters:sRGB"><feGaussianBlur stdDeviation="6.8334999"/></filter><filter id="filter7253" x="-.29415" y="-.49001" width="1.5883" height="1.98" style="color-interpolation-filters:sRGB"><feGaussianBlur stdDeviation="9.0402061"/></filter><filter id="filter8815" x="-.50971" y="-.038282" width="2.0194" height="1.0766" style="color-interpolation-filters:sRGB"><feGaussianBlur stdDeviation="0.32332598"/></filter><filter id="filter8831" x="-.15324" y="-.042965" width="1.3065" height="1.0859" style="color-interpolation-filters:sRGB"><feGaussianBlur stdDeviation="0.36673966"/></filter><filter id="filter8856" x="-.12429" y="-.045166" width="1.2486" height="1.0903" style="color-interpolation-filters:sRGB"><feGaussianBlur stdDeviation="0.29680168"/></filter></defs><g><g transform="matrix(2.4418 0 0 2.4418 -122.87 -60.67)" style="stroke-width:.40953"><circle id="path6830" cx="93.541" cy="84.734" r="58.262" style="fill-rule:evenodd;fill:#40e0d0"/><ellipse transform="matrix(.99707 0 0 .52718 .33413 40.858)" cx="92.785" cy="87.758" rx="36.88" ry="22.139" style="fill-rule:evenodd;fill:#86e0d0;filter:url(#filter6877);mix-blend-mode:normal"/><ellipse transform="matrix(.13717 0 0 .5555 77.247 7.0725)" cx="92.785" cy="87.758" rx="36.88" ry="22.139" style="fill-rule:evenodd;fill:#86e0d0;filter:url(#filter7253);mix-blend-mode:normal"/><ellipse transform="matrix(.13717 0 0 .56628 49.465 13.214)" cx="92.785" cy="87.758" rx="36.88" ry="22.139" style="fill-rule:evenodd;fill:#86e0d0;filter:url(#filter7253);mix-blend-mode:normal"/><ellipse transform="matrix(.13717 0 0 .76443 79.4 37.277)" cx="92.785" cy="87.758" rx="36.88" ry="22.139" style="fill-rule:evenodd;fill:#86e0d0;filter:url(#filter7253);mix-blend-mode:normal"/><ellipse transform="matrix(.13717 0 0 .67298 101.32 41.669)" cx="92.785" cy="87.758" rx="36.88" ry="22.139" style="fill-rule:evenodd;fill:#86e0d0;filter:url(#filter7253);mix-blend-mode:normal"/><ellipse transform="matrix(.44027 0 0 .333 20.727 57.364)" cx="92.785" cy="87.758" rx="36.88" ry="22.139" style="fill-rule:evenodd;fill:#86e0d0;filter:url(#filter6877);mix-blend-mode:normal"/><g transform="translate(-138.45)" style="stroke-width:.40953"><path id="path8802" transform="matrix(.81525 0 0 .8977 164.68 8.4544)" d="m144.13 83.49 1.0297 27.856 6.7806-22.875" style="fill:none;filter:url(#filter8831);opacity:.5;stroke-linecap:round;stroke-linejoin:round;stroke-width:.6333;stroke:#ff0000"/><path id="path8808" transform="matrix(.76391 0 0 .81749 70.272 14.011)" d="m275.04 78.958 1.1154-24.672 1.0795 29.204" style="fill:none;filter:url(#filter8815);mix-blend-mode:normal;opacity:.5;stroke-linecap:round;stroke-linejoin:round;stroke-width:.68557;stroke:#ff0000"/><path id="path8806" d="m183.37 88.403 1.8794-0.05992 1.9014-4.1138 2.9263 4.2658 1.2128 0.01373 1.1078 4.1652 0.733-4.0624 1.1409-0.05132 1.1243-6.0625 1.4054 6.0625h0.65587l1.218 6.279 1.2196-41.43 1.7786 62.649 1.4054-27.498h2.9982l2.3424-7.5781 2.6178 7.6667 12.561-0.08867 1.9676-5.6295 1.0198 5.5672 1.1461-0.0011 0.4576 3.0947 1.6865-38.107 2.0151 62.535 1.3282-27.568 3.3924-0.10816 1.9013-4.1138 2.9263 4.2658 1.2128 0.01373 1.1078 4.1652 0.733-4.0624 1.1409-0.05132 1.1243-6.0625 1.4054 6.0625h0.65588l1.218 6.279 1.2196-41.052 1.7786 62.271 1.4054-27.498h2.9982l2.3424-7.5781 2.6178 7.6667 12.561-0.08867 1.9676-5.6295 1.0198 5.5672 1.1461-0.0011 0.4576 3.0947 0.57114-12.633" style="fill:none;stroke-linecap:round;stroke-linejoin:round;stroke-width:1.2163;stroke:#ff0000"/><path id="path8845" d="m175.45 88.389 5.817 21.769 0.58084-21.707 1.513-0.04824" style="fill:none;filter:url(#filter8856);opacity:.5;stroke-linecap:round;stroke-linejoin:round;stroke-width:.54177;stroke:#ff0000"/></g></g></g></svg>
