<?xml version="1.0" encoding="UTF-8"?>
<!-- Created with Inkscape (http://www.inkscape.org/) -->
<svg width="100" height="100" version="1.1" viewBox="0 0 210 297" xml:space="preserve" xmlns="http://www.w3.org/2000/svg"><defs><filter id="filter6877" x="-.22235" y="-.3704" width="1.4447" height="1.7408" style="color-interpolation-filters:sRGB"><feGaussianBlur stdDeviation="6.8334999"/></filter><filter id="filter7253" x="-.29415" y="-.49001" width="1.5883" height="1.98" style="color-interpolation-filters:sRGB"><feGaussianBlur stdDeviation="9.0402061"/></filter><filter id="filter8815" x="-.50971" y="-.038282" width="2.0194" height="1.0766" style="color-interpolation-filters:sRGB"><feGaussianBlur stdDeviation="0.32332598"/></filter><filter id="filter8831" x="-.15324" y="-.042965" width="1.3065" height="1.0859" style="color-interpolation-filters:sRGB"><feGaussianBlur stdDeviation="0.36673966"/></filter><filter id="filter8856" x="-.12429" y="-.045166" width="1.2486" height="1.0903" style="color-interpolation-filters:sRGB"><feGaussianBlur stdDeviation="0.29680168"/></filter></defs><circle id="path6830" cx="105.54" cy="146.23" r="142.26" style="fill-rule:evenodd;fill:#40e0d0;stroke-width:.99999"/><ellipse transform="matrix(2.4346 0 0 1.2873 -122.05 39.097)" cx="92.785" cy="87.758" rx="36.88" ry="22.139" style="fill-rule:evenodd;fill:#86e0d0;filter:url(#filter6877);mix-blend-mode:normal;stroke-width:.40953"/><ellipse transform="matrix(.33494 0 0 1.3564 65.752 -43.4)" cx="92.785" cy="87.758" rx="36.88" ry="22.139" style="fill-rule:evenodd;fill:#86e0d0;filter:url(#filter7253);mix-blend-mode:normal;stroke-width:.40953"/><ellipse transform="matrix(.33494 0 0 1.3827 -2.0864 -28.404)" cx="92.785" cy="87.758" rx="36.88" ry="22.139" style="fill-rule:evenodd;fill:#86e0d0;filter:url(#filter7253);mix-blend-mode:normal;stroke-width:.40953"/><ellipse transform="matrix(.33494 0 0 1.8666 71.009 30.353)" cx="92.785" cy="87.758" rx="36.88" ry="22.139" style="fill-rule:evenodd;fill:#86e0d0;filter:url(#filter7253);mix-blend-mode:normal;stroke-width:.40953"/><ellipse transform="matrix(.33494 0 0 1.6433 124.53 41.077)" cx="92.785" cy="87.758" rx="36.88" ry="22.139" style="fill-rule:evenodd;fill:#86e0d0;filter:url(#filter7253);mix-blend-mode:normal;stroke-width:.40953"/><ellipse transform="matrix(1.0751 0 0 .81312 -72.259 79.401)" cx="92.785" cy="87.758" rx="36.88" ry="22.139" style="fill-rule:evenodd;fill:#86e0d0;filter:url(#filter6877);mix-blend-mode:normal;stroke-width:.40953"/><g transform="matrix(.31709 0 0 .31685 175.83 107.7)" style="stroke-width:3.1549"><rect x="-539.66" y="-174.13" width="635.93" height="591.48" rx="0" ry="21.798" style="fill-rule:evenodd;fill:#000000;stroke-width:9.37px;stroke:#000000"/><text x="-516.16858" y="-139.80496" style="fill-rule:evenodd;fill:#ffffff;font-family:Calibri;font-size:11.24px;font-weight:bold;opacity:.5;stroke-linecap:round;stroke-linejoin:round;stroke-width:18.74" xml:space="preserve"><tspan x="-516.16858" y="-139.80496" style="fill:#ffffff;stroke-width:18.74">C:\Users\rene_&gt;pip list</tspan><tspan x="-516.16858" y="-125.75459" style="fill:#ffff00;stroke-width:18.74">WARNING: Ignoring invalid distribution -isenmp-examples (c:\users\rene_\appdata\roaming\python\python310\site-packages)</tspan><tspan x="-516.16858" y="-111.70421" style="fill:#ffff00;stroke-width:18.74">WARNING: Ignoring invalid distribution -isenradio (c:\users\rene_\appdata\roaming\python\python310\site-packages)</tspan><tspan x="-516.16858" y="-97.653839" style="fill:#ffffff;stroke-width:18.74">Package                           Version</tspan><tspan x="-516.16858" y="-83.603462" style="fill:#ffffff;stroke-width:18.74">--------------------------------- -------</tspan><tspan x="-516.16858" y="-69.553085" style="fill:#ffffff;stroke-width:18.74">Flask-SQLAlchemy                  3.0.3</tspan><tspan x="-516.16858" y="-55.502712" style="fill:#ffffff;stroke-width:18.74">Flask-SQLAlchemy-Project-Template 1.5.2</tspan><tspan x="-516.16858" y="-41.452335" style="fill:#ffffff;stroke-width:18.74">fs                                2.4.14</tspan><tspan x="-516.16858" y="-27.40196" style="fill:#ffffff;stroke-width:18.74">pip                               23.1</tspan><tspan x="-516.16858" y="-13.351585" style="fill:#ffffff;stroke-width:18.74">setuptools                        59.2.0</tspan><tspan x="-516.16858" y="0.69879007" style="fill:#ffffff;stroke-width:18.74">wheel                             0.37.1</tspan><tspan x="-516.16858" y="14.749166" style="fill:#ffffff;stroke-width:18.74"/><tspan x="-516.16858" y="28.799541" style="fill:#ffffff;stroke-width:18.74">[<tspan style="fill:#003380;stroke-width:18.74">notice</tspan>] A new release of pip is available: <tspan style="fill:#ff0000;stroke-width:18.74">23.1</tspan> -&gt; 23.1.2</tspan><tspan x="-516.16858" y="42.849915" style="fill:#ffffff;stroke-width:18.74">[<tspan style="fill:#0044aa;stroke-width:18.74">notice</tspan>] To update, run: <tspan style="fill:#00ff00;stroke-width:18.74">python.exe -m pip install --upgrade pip</tspan></tspan><tspan x="-516.16858" y="56.900291" style="fill:#ffffff;stroke-width:18.74"/><tspan x="-516.16858" y="70.950668" style="fill:#ffffff;stroke-width:18.74">C:\Users\rene_&gt;pip install --upgrade certifi</tspan><tspan x="-516.16858" y="85.001038" style="fill:#ffffff;stroke-width:18.74">Defaulting to user installation because normal site-packages is not writeable</tspan><tspan x="-516.16858" y="99.051414" style="fill:#ffff00;stroke-width:18.74">WARNING: Ignoring invalid distribution -isenmp-examples (c:\users\rene_\appdata\roaming\python\python310\site-packages)</tspan><tspan x="-516.16858" y="113.10179" style="fill:#ffff00;stroke-width:18.74">WARNING: Ignoring invalid distribution -isenradio (c:\users\rene_\appdata\roaming\python\python310\site-packages)</tspan><tspan x="-516.16858" y="127.15217" style="fill:#ffffff;stroke-width:18.74">Collecting certifi</tspan><tspan x="-516.16858" y="141.20255" style="fill:#ffffff;stroke-width:18.74">  Using cached certifi-2023.5.7-py3-none-any.whl (156 kB)</tspan><tspan x="-516.16858" y="155.25291" style="fill:#ffff00;stroke-width:18.74">WARNING: Ignoring invalid distribution -isenmp-examples (c:\users\rene_\appdata\roaming\python\python310\site-packages)</tspan><tspan x="-516.16858" y="169.3033" style="fill:#ffff00;stroke-width:18.74">WARNING: Ignoring invalid distribution -isenradio (c:\users\rene_\appdata\roaming\python\python310\site-packages)</tspan><tspan x="-516.16858" y="183.35367" style="fill:#ffffff;stroke-width:18.74">Installing collected packages: certifi</tspan><tspan x="-516.16858" y="197.40404" style="fill:#ffffff;stroke-width:18.74">Successfully installed certifi-2023.5.7</tspan><tspan x="-516.16858" y="211.45442" style="fill:#ffffff;stroke-width:18.74"/><tspan x="-516.16858" y="225.50479" style="fill:#ffffff;stroke-width:18.74">[<tspan style="fill:#003380;stroke-width:18.74">notice</tspan>] A new release of pip is available: <tspan style="fill:#ff0000;stroke-width:18.74">23.1</tspan> -&gt; 23.1.2</tspan><tspan x="-516.16858" y="239.55518" style="fill:#ffffff;stroke-width:18.74">[<tspan style="fill:#003380;stroke-width:18.74">notice</tspan>] To update, run: <tspan style="fill:#00ff00;stroke-width:18.74">python.exe -m pip install --upgrade pip</tspan></tspan></text></g><g transform="matrix(2.4418 0 0 2.4418 -460.94 -60.67)" style="stroke-width:.40953"><path id="path8802" transform="matrix(.81525 0 0 .8977 164.68 8.4544)" d="m144.13 83.49 1.0297 27.856 6.7806-22.875" style="fill:none;filter:url(#filter8831);opacity:.5;stroke-linecap:round;stroke-linejoin:round;stroke-width:.6333;stroke:#ff0000"/><path id="path8808" transform="matrix(.76391 0 0 .81749 70.272 14.011)" d="m275.04 78.958 1.1154-24.672 1.0795 29.204" style="fill:none;filter:url(#filter8815);mix-blend-mode:normal;opacity:.5;stroke-linecap:round;stroke-linejoin:round;stroke-width:.68557;stroke:#ff0000"/><path id="path8806" d="m183.37 88.403 1.8794-0.05992 1.9014-4.1138 2.9263 4.2658 1.2128 0.01373 1.1078 4.1652 0.733-4.0624 1.1409-0.05132 1.1243-6.0625 1.4054 6.0625h0.65587l1.218 6.279 1.2196-41.43 1.7786 62.649 1.4054-27.498h2.9982l2.3424-7.5781 2.6178 7.6667 12.561-0.08867 1.9676-5.6295 1.0198 5.5672 1.1461-0.0011 0.4576 3.0947 1.6865-38.107 2.0151 62.535 1.3282-27.568 3.3924-0.10816 1.9013-4.1138 2.9263 4.2658 1.2128 0.01373 1.1078 4.1652 0.733-4.0624 1.1409-0.05132 1.1243-6.0625 1.4054 6.0625h0.65588l1.218 6.279 1.2196-41.052 1.7786 62.271 1.4054-27.498h2.9982l2.3424-7.5781 2.6178 7.6667 12.561-0.08867 1.9676-5.6295 1.0198 5.5672 1.1461-0.0011 0.4576 3.0947 0.57114-12.633" style="fill:none;stroke-linecap:round;stroke-linejoin:round;stroke-width:1.2163;stroke:#ff0000"/><path id="path8845" d="m175.45 88.389 5.817 21.769 0.58084-21.707 1.513-0.04824" style="fill:none;filter:url(#filter8856);opacity:.5;stroke-linecap:round;stroke-linejoin:round;stroke-width:.54177;stroke:#ff0000"/></g></svg>
